Coordinates
version=1
nRows=27
nColumns=12
inDegrees=yes

Units are S.I. units (second, meters, Newtons, ...)
Angles are in degrees

endheader
time	SC_y	SC_z	SC_x	AC_y	AC_z	AC_x	GH_y	GH_z	GH_yy	EL_x	PS_y
       0.0              -40.84          15.66          57.08          30.44         -9.395          3.318         -62.51          8.902          148.6          106.5          155.1
   0.03274              -40.84          15.66          57.07          30.45         -9.397          3.315         -62.48          8.905          148.6          106.5          155.1
   0.06547              -40.84          15.66          57.06          30.45         -9.398          3.311         -62.44          8.909          148.6          106.5          155.1
   0.09821              -40.84          15.66          57.06          30.45         -9.399          3.308          -62.4          8.913          148.5          106.5          155.1
    0.1309              -40.83          15.65          57.05          30.46         -9.401          3.304         -62.36          8.917          148.5          106.5          155.1
    0.1637              -40.83          15.65          57.04          30.46         -9.402            3.3         -62.32          8.921          148.5          106.5          155.1
    0.1964              -40.83          15.65          57.03          30.47         -9.404          3.296         -62.27          8.926          148.5          106.5          155.1
    0.2292              -40.82          15.64          57.03          30.47         -9.406          3.291         -62.22          8.931          148.4          106.5          155.0
    0.2619              -40.82          15.64          57.02          30.48         -9.407          3.286         -62.17          8.937          148.4          106.5          155.0
    0.2946              -40.82          15.64          57.01          30.48         -9.409          3.281         -62.11          8.942          148.4          106.5          155.0
    0.3274              -40.81          15.63          56.99          30.49         -9.411          3.275         -62.05          8.949          148.3          106.5          155.0
    0.3601              -40.81          15.63          56.98          30.49         -9.414          3.269         -61.98          8.956          148.3          106.5          155.0
    0.3928               -40.8          15.62          56.97           30.5         -9.416          3.262         -61.91          8.963          148.3          106.4          154.9
    0.4256               -40.8          15.61          56.96          30.51         -9.419          3.255         -61.84          8.971          148.2          106.4          154.9
    0.4583              -40.79          15.61          56.94          30.52         -9.422          3.248         -61.75          8.979          148.2          106.4          154.9
     0.491              -40.79           15.6          56.92          30.53         -9.425          3.239         -61.66          8.989          148.1          106.4          154.9
    0.5238              -40.78          15.59          56.91          30.53         -9.428           3.23         -61.56          8.999          148.1          106.4          154.8
    0.5565              -40.78          15.59          56.89          30.55         -9.432           3.22         -61.46           9.01          148.0          106.4          154.8
    0.5893              -40.77          15.58          56.87          30.56         -9.436           3.21         -61.34          9.021          147.9          106.4          154.8
     0.622              -40.76          15.57          56.84          30.57         -9.441          3.198         -61.21          9.035          147.8          106.4          154.7
    0.6547              -40.75          15.56          56.82          30.58         -9.446          3.185         -61.07          9.049          147.8          106.4          154.7
    0.6875              -40.74          15.55          56.79           30.6         -9.451          3.171         -60.91          9.065          147.7          106.3          154.7
    0.7202              -40.73          15.53          56.76          30.61         -9.457          3.155         -60.74          9.082          147.6          106.3          154.6
    0.7529              -40.72          15.52          56.72          30.63         -9.463          3.137         -60.55          9.102          147.5          106.3          154.5
    0.7857               -40.7           15.5          56.69          30.65         -9.471          3.118         -60.34          9.123          147.4          106.3          154.5
    0.8184              -40.69          15.49          56.64          30.68         -9.479          3.096         -60.11          9.147          147.2          106.3          154.4
    0.8512              -40.67          15.47           56.6           30.7         -9.488          3.072         -59.84          9.174          147.1          106.2          154.3
